<svg width="128" height="128" viewBox="0 0 128 128" fill="none" xmlns="http://www.w3.org/2000/svg">
  <defs>
    <linearGradient id="bg" x1="18" y1="12" x2="112" y2="118" gradientUnits="userSpaceOnUse">
      <stop offset="0" stop-color="#14151B"/>
      <stop offset="1" stop-color="#090A0E"/>
    </linearGradient>
    <linearGradient id="silverStroke" x1="30" y1="24" x2="102" y2="90" gradientUnits="userSpaceOnUse">
      <stop offset="0" stop-color="#D5DCE4"/>
      <stop offset="0.52" stop-color="#AEB5BE"/>
      <stop offset="1" stop-color="#868E97"/>
    </linearGradient>
    <linearGradient id="silverBack" x1="36" y1="46" x2="94" y2="88" gradientUnits="userSpaceOnUse">
      <stop offset="0" stop-color="#6F7782"/>
      <stop offset="1" stop-color="#434A54"/>
    </linearGradient>
    <linearGradient id="nodeFill" x1="34" y1="18" x2="96" y2="80" gradientUnits="userSpaceOnUse">
      <stop offset="0" stop-color="#E4F4FF"/>
      <stop offset="1" stop-color="#8EC9F8"/>
    </linearGradient>
  </defs>
  <rect x="6" y="6" width="116" height="116" rx="24" fill="url(#bg)"/>
  <g stroke-linecap="round" stroke-linejoin="round">
    <path d="M64 22L98 38L64 54L30 38L64 22Z" stroke="url(#silverStroke)" stroke-width="5"/>
    <path d="M64 52L98 68L64 84L30 68L64 52Z" stroke="url(#silverBack)" stroke-width="5" opacity="0.92"/>
    <path d="M64 22V70" stroke="url(#silverStroke)" stroke-width="5" opacity="0.9"/>
    <path d="M42 32V60" stroke="url(#silverStroke)" stroke-width="5" opacity="0.76"/>
    <path d="M86 40V62" stroke="url(#silverStroke)" stroke-width="5" opacity="0.76"/>
    <path d="M42 32L64 54L86 40" stroke="url(#silverStroke)" stroke-width="5"/>
    <circle cx="64" cy="22" r="7" fill="url(#nodeFill)"/>
    <circle cx="42" cy="32" r="7" fill="url(#nodeFill)"/>
    <circle cx="86" cy="40" r="7" fill="url(#nodeFill)"/>
    <circle cx="64" cy="54" r="7" fill="url(#nodeFill)"/>
    <circle cx="64" cy="70" r="7" fill="url(#nodeFill)"/>
  </g>
</svg>
